<svg width="80" height="80" viewBox="0 0 80 80" fill="none" xmlns="http://www.w3.org/2000/svg">
<path d="M39.9998 6.66669C35.6224 6.66669 31.2879 7.52888 27.2437 9.20404C23.1995 10.8792 19.5249 13.3345 16.4296 16.4298C10.1784 22.681 6.6665 31.1595 6.6665 40C6.6665 54.7334 16.2332 67.2334 29.4665 71.6667C31.1332 71.9334 31.6665 70.9 31.6665 70V64.3667C22.4332 66.3667 20.4665 59.9 20.4665 59.9C18.9332 56.0334 16.7665 55 16.7665 55C13.7332 52.9334 16.9998 53 16.9998 53C20.3332 53.2334 22.0998 56.4334 22.0998 56.4334C24.9998 61.5 29.8998 60 31.7998 59.2C32.0998 57.0334 32.9665 55.5667 33.8998 54.7334C26.4998 53.9 18.7332 51.0334 18.7332 38.3334C18.7332 34.6334 19.9998 31.6667 22.1665 29.3C21.8332 28.4667 20.6665 25 22.4998 20.5C22.4998 20.5 25.2998 19.6 31.6665 23.9C34.2998 23.1667 37.1665 22.8 39.9998 22.8C42.8332 22.8 45.6998 23.1667 48.3332 23.9C54.6998 19.6 57.4998 20.5 57.4998 20.5C59.3332 25 58.1665 28.4667 57.8332 29.3C59.9998 31.6667 61.2665 34.6334 61.2665 38.3334C61.2665 51.0667 53.4665 53.8667 46.0332 54.7C47.2332 55.7334 48.3332 57.7667 48.3332 60.8667V70C48.3332 70.9 48.8665 71.9667 50.5665 71.6667C63.7998 67.2 73.3332 54.7334 73.3332 40C73.3332 35.6226 72.471 31.2881 70.7958 27.2439C69.1207 23.1997 66.6653 19.5251 63.5701 16.4298C60.4748 13.3345 56.8001 10.8792 52.756 9.20404C48.7118 7.52888 44.3772 6.66669 39.9998 6.66669Z" fill="white"/>
</svg>
